# xmcd
#
# Track frame offsets: 
#        150
#        16650
#        36303
#        55206
#        73354
#        89855
#        109529
#        128506
#
# Disc length: 1788 seconds
#
# Revision: 0
# Processed by: cddbd v1.5.2PL0 Copyright (c) Steve Scherf et al.
# Submitted via: ExactAudioCopy v0.99pb5
#
DISCID=6a06fa08
DTITLE=Хиками Киоко - Rabi~en~Rose
DYEAR=2000
DGENRE=Blues
TTITLE0=60'S DREAM
TTITLE1=My First Love
TTITLE2=Welcome! (элегантное исполнение Раби~ан~Розу)
TTITLE3=60's DREAM (евробит ремикс)
TTITLE4=60's DREAM (караоке)
TTITLE5=My First Love (караоке)
TTITLE6=Welcome! (элегантное исполнение Раби~ан~Розу) (караоке)
TTITLE7=Голосовое послание Хиками Киоко
EXTD=
EXTT0=
EXTT1=
EXTT2=
EXTT3=
EXTT4=
EXTT5=
EXTT6=
EXTT7=
PLAYORDER=
